# xmcd
#
# Track frame offsets:
#   180
#   18298
#   51188
#   85121
#   117188
#   141973
#   174451
#   206985
#   224889
#   246406
#   273989
#
# Disc length: 4075 seconds
#
# Revision: 8
# Processed by: cddbd v1.5.1PL0 Copyright (c) Steve Scherf et al.
# Submitted via: Media_Universe 3.0
#
DISCID=a90fe90b
DTITLE=Various Artist - The Blue Box - Blue Note's Best - Disc 4
DYEAR=1997
DGENRE=Jazz
TTITLE0=Stanley Turrentine - God Bless The Child
TTITLE1=Horace Silver - Song For My Father
TTITLE2=Wayne Shorter - Footprints
TTITLE3=Chick Corea - Now He Sings, Now He Sobs
TTITLE4=Lou Donaldson - Every Thing I Do Gonh Be Funky
TTITLE5=Freddie Hubbard - Open Sesame
TTITLE6=Grant Green - Speak Low
TTITLE7=Jay Jay Johnson - Lover Man
TTITLE8=Bud Powell - Un Poco Loco
TTITLE9=Dexter Gordon - Don't Explain
TTITLE10=Tony Williams - Sister Cheryl
EXTD=
EXTT0=(Billie Holiday/Arthur Herzog Jr.]\nStanly Turrentine - Tenor Saxophone\nShirley
EXTT0=Scott - Organ\nMajor Holley - Bass\nClarence Johnston Drums\n
EXTT1=Horace Silver - Piano\nCarmell Jones - Trumpet\nJoe Henderson - TenorSaxophone\n
EXTT1=Teddy Smith - Bass\nRoger Humphries - Drums\n
EXTT2=Wayne Shorter - Tenor Saxophone\nHerbie Hancock - Piano\nReggie Workman - Bass\n
EXTT2=Elvin Jones - Drums\n
EXTT3=Chick Corea - Piano\nMiroslav Vitous - Bass\nRoy Haynes - Drums\n
EXTT4=(Allen Toussaint]\nLou Donaldson - Alto Saxophone\nBlue Mitchell - Trumpet\nMelv
EXTT4=in Sparkes - Guitar\nLonnie Smith - Organ\nJimmy Lewis - Bass\nIdris Muhammad - 
EXTT4=Drums\n
EXTT5=(Harold Tina Brooks]\nFreddie Hubbard - Trumpet\nTina Brooks - Tenor Saxophone\n
EXTT5=McCoy Tyner - Piano\nSam Jones - Bass\nClifford Jarvis - Drums\n
EXTT6=(Kurt Weill/Ogden Nash]\nGrant Green - Guitar\nHank Mobley - Tenor Saxophone\nLa
EXTT6=rry Young - Organ\nElvin Jones - Drums\n
EXTT7=(Roger Ramirez/James Davis/James \nSherman]\nJay Jay Johnson - Trombone\nCliffor
EXTT7=d Brown - Trumpet\nJimy Heath - Tenor and Baritone \nSaxophone\nJohn Lewis - Pia
EXTT7=no\nPercy Heath - Bass\nKenny Clarke - Drums\n
EXTT8=(Earl Bud Powell]\nBud Powell - Piano\nCurly Russell - Bass\nMax Roach- Drums\n
EXTT9=(Billie Holiday/Arthur Herzog Jr.]\nDexter Gordon - Tenor Saxophone\nSonny Clark
EXTT9=Piano\nButch Warren - Bass\nBilly Higgins - Drums\n
EXTT10=Tony Williams - Drums\nWallace Roney - Trumpet\nDonald Harrison - AltoSaxophone\
EXTT10=nBobby Hutcherson - Vibes\nMulgrew Miller - Piano\nRon Carter - Bass\n
PLAYORDER=
